<svg xmlns="http://www.w3.org/2000/svg" viewBox="0 0 200 200"><circle cx="100" cy="100" r="96" fill="#d9b987"/><circle cx="100" cy="97" r="94" fill="#e8c896"/><circle cx="71.2" cy="116.7" r="2.9" fill="#f6d6a4" opacity="0.35"/><circle cx="113.9" cy="104.7" r="1.7" fill="#f6d6a4" opacity="0.35"/><circle cx="85.7" cy="50.3" r="3.3" fill="#d2b280" opacity="0.35"/><circle cx="101.1" cy="151.5" r="1.9" fill="#d2b280" opacity="0.35"/><circle cx="29.4" cy="71.8" r="3.3" fill="#d2b280" opacity="0.35"/><circle cx="107.4" cy="81.8" r="2.1" fill="#d2b280" opacity="0.35"/><circle cx="181.8" cy="65.1" r="2.7" fill="#f6d6a4" opacity="0.35"/><circle cx="143.3" cy="29.5" r="2.7" fill="#d2b280" opacity="0.35"/><circle cx="140.9" cy="156.8" r="1.6" fill="#d2b280" opacity="0.35"/><circle cx="90.3" cy="112.3" r="3.4" fill="#f6d6a4" opacity="0.35"/><circle cx="26.3" cy="126.3" r="2.7" fill="#f6d6a4" opacity="0.35"/><circle cx="174.8" cy="137.5" r="2.6" fill="#d2b280" opacity="0.35"/><circle cx="138.4" cy="146.5" r="2.6" fill="#d2b280" opacity="0.35"/><circle cx="131.1" cy="106.1" r="1.7" fill="#d2b280" opacity="0.35"/><circle cx="87.5" cy="172.1" r="3.1" fill="#d2b280" opacity="0.35"/><circle cx="100.5" cy="148.7" r="2.8" fill="#d2b280" opacity="0.35"/><circle cx="151.0" cy="118.0" r="3.1" fill="#d2b280" opacity="0.35"/><circle cx="150.9" cy="159.1" r="1.7" fill="#d2b280" opacity="0.35"/><circle cx="173.8" cy="91.3" r="3.2" fill="#f6d6a4" opacity="0.35"/><circle cx="35.2" cy="62.0" r="2.2" fill="#d2b280" opacity="0.35"/><circle cx="116.9" cy="103.5" r="2.2" fill="#f6d6a4" opacity="0.35"/><circle cx="126.1" cy="115.2" r="2.7" fill="#d2b280" opacity="0.35"/><ellipse cx="100" cy="82" rx="76" ry="48" fill="#ff8fb3" opacity="0.85"/><path d="M63.2,124 q-2.5,11.9 -4.0,15.9" stroke="#ff8fb3" stroke-width="7" fill="none" stroke-linecap="round" opacity="0.85"/><path d="M82.2,124 q-2.0,22.2 1.3,26.2" stroke="#ff8fb3" stroke-width="7" fill="none" stroke-linecap="round" opacity="0.85"/><path d="M56.8,124 q-0.5,9.9 0.3,13.9" stroke="#ff8fb3" stroke-width="7" fill="none" stroke-linecap="round" opacity="0.85"/><path d="M118.0,124 q-0.0,14.8 2.0,18.8" stroke="#ff8fb3" stroke-width="7" fill="none" stroke-linecap="round" opacity="0.85"/></svg>